# xmcd CD database file
#
# Track frame offsets:
#	150
#	19188
#	31769
#	53256
#	74300
#	93587
#	116275
#	149419
#	165617
#	190566
#	212272
#	234965
#	248093
#	266550
#	284178
#	305294
#	318202
#
# Disc length: 4394 seconds
#
# Revision: 0
# Processed by: cddbd v1.5.2PL0 Copyright (c) Steve Scherf et al.
# Submitted via: CDex 1.51
#
DISCID=dc112811
DTITLE=Dizzy Gillespie - Gettin' Dizzy [CD 2)
DYEAR=2009
DGENRE=Jazz
TTITLE0=Manteca Theme
TTITLE1=Contraste
TTITLE2=Jungla
TTITLE3=Rhumba Finale
TTITLE4=A Night In Tunisia
TTITLE5=Con Alma
TTITLE6=Caravan
TTITLE7=Dizzy's Business
TTITLE8=A Night In Tunisia (1956 Ver.)
TTITLE9=Jessica's Day
TTITLE10=Tour De Force
TTITLE11=I Can't Get Started
TTITLE12=Stella By Starlight
TTITLE13=Doodlin'
TTITLE14=The Champ
TTITLE15=My Reverie
TTITLE16=Dizzy's Blues
EXTD=YEAR: 2009
EXTT0=
EXTT1=
EXTT2=
EXTT3=
EXTT4=
EXTT5=
EXTT6=
EXTT7=
EXTT8=
EXTT9=
EXTT10=
EXTT11=
EXTT12=
EXTT13=
EXTT14=
EXTT15=
EXTT16=
PLAYORDER=
